# xmcd
#
# Track frame offsets: 
#        198
#        12160
#        25733
#        36480
#        48420
#        61120
#        74163
#        88228
#        99448
#        112605
#        123130
#        134838
#        147175
#        158405
#        170383
#        181243
#        191928
#        206205
#        218700
#        231858
#        244645
#        256723
#        268080
#        279790
#        292565
#
# Disc length: 4148 seconds
#
# Revision: 1
# Processed by: cddbd v1.5.2PL0 Copyright (c) Steve Scherf et al.
# Submitted via: ExactAudioCopy v1.0b3
#
DISCID=60103219
DTITLE=T-Bone Walker - The Talkin' Guitar
DYEAR=1990
DGENRE=Blues
TTITLE0=Bobby Sox Blues
TTITLE1=Call It Stormy Monday
TTITLE2=Lonesome Woman Blues
TTITLE3=Too Much Trouble Blues
TTITLE4=Hypin' Women Blues
TTITLE5=Vacation Blues
TTITLE6=So Blues Blues
TTITLE7=Strollin' With Bones
TTITLE8=You Don't Love Me
TTITLE9=Travelin' Blues
TTITLE10=Evil Hearted Woman
TTITLE11=Glamour Girl
TTITLE12=The Hustle
TTITLE13=Alimony Blues
TTITLE14=Say! Pretty Baby
TTITLE15=I'm About To Lose My Mind
TTITLE16=Cold Cold Feeling
TTITLE17=Blues Is A Woman
TTITLE18=I Got The Blues
TTITLE19=Blue Mood
TTITLE20=Railroad Station Blues
TTITLE21=Play On Little Girl
TTITLE22=T-Bone Blues Special
TTITLE23=Two Bone And A Pick
TTITLE24=Mean Old World
EXTD=
EXTT0=
EXTT1=
EXTT2=
EXTT3=
EXTT4=
EXTT5=
EXTT6=
EXTT7=
EXTT8=
EXTT9=
EXTT10=
EXTT11=
EXTT12=
EXTT13=
EXTT14=
EXTT15=
EXTT16=
EXTT17=
EXTT18=
EXTT19=
EXTT20=
EXTT21=
EXTT22=
EXTT23=
EXTT24=
PLAYORDER=
